<?xml version="1.0" encoding="iso-8859-1"?>
<!-- Generator: Adobe Illustrator 19.0.0, SVG Export Plug-In . SVG Version: 6.00 Build 0)  -->
<svg version="1.1" id="Capa_1" 
    xmlns="http://www.w3.org/2000/svg" 
    xmlns:xlink="http://www.w3.org/1999/xlink" x="0px" y="0px" viewBox="0 0 491.203 491.203" style="enable-background:new 0 0 491.203 491.203;" xml:space="preserve">
    <g>
        <g>
            <path d="M487.298,326.733l-62.304-37.128l62.304-37.128c2.421-1.443,3.904-4.054,3.904-6.872s-1.483-5.429-3.904-6.872
			l-62.304-37.128l62.304-37.128c3.795-2.262,5.038-7.172,2.776-10.968c-0.68-1.142-1.635-2.096-2.776-2.776l-237.6-141.6
			c-2.524-1.504-5.669-1.504-8.192,0l-237.6,141.6c-3.795,2.262-5.038,7.172-2.776,10.968c0.68,1.142,1.635,2.096,2.776,2.776
			l62.304,37.128L3.905,238.733c-3.795,2.262-5.038,7.172-2.776,10.968c0.68,1.142,1.635,2.096,2.776,2.776l62.304,37.128
			L3.905,326.733c-3.795,2.262-5.038,7.172-2.776,10.968c0.68,1.142,1.635,2.096,2.776,2.776l237.6,141.6
			c2.526,1.494,5.666,1.494,8.192,0l237.6-141.6c3.795-2.262,5.038-7.172,2.776-10.968
			C489.393,328.368,488.439,327.414,487.298,326.733z M23.625,157.605L245.601,25.317l221.976,132.288L245.601,289.893
			L23.625,157.605z M23.625,245.605l58.208-34.68l159.672,95.2c2.524,1.504,5.668,1.504,8.192,0l159.672-95.2l58.208,34.68
			L245.601,377.893L23.625,245.605z M245.601,465.893L23.625,333.605l58.208-34.68l159.672,95.2c2.524,1.504,5.668,1.504,8.192,0
			l159.672-95.2l58.208,34.68L245.601,465.893z"/>
        </g>
    </g>

</svg>